<svg width="24" height="24" viewBox="0 0 24 24" fill="none" xmlns="http://www.w3.org/2000/svg">
<g clip-path="url(#clip0_8_15976)">
<path d="M18.9996 0H13.9996C13.7344 0 13.48 0.105357 13.2925 0.292893C13.105 0.48043 12.9996 0.734784 12.9996 1C12.9996 1.26522 13.105 1.51957 13.2925 1.70711C13.48 1.89464 13.7344 2 13.9996 2H18.9996C19.4451 2.00172 19.8844 2.10429 20.2846 2.3L0.292593 22.293C0.197083 22.3852 0.120901 22.4956 0.0684915 22.6176C0.0160825 22.7396 -0.0115037 22.8708 -0.0126576 23.0036C-0.0138114 23.1364 0.0114903 23.2681 0.0617712 23.391C0.112052 23.5139 0.186305 23.6255 0.280198 23.7194C0.374091 23.8133 0.485743 23.8875 0.608639 23.9378C0.731535 23.9881 0.863215 24.0134 0.995994 24.0123C1.12877 24.0111 1.25999 23.9835 1.382 23.9311C1.504 23.8787 1.61435 23.8025 1.70659 23.707L21.6996 3.715C21.8953 4.1152 21.9979 4.55451 21.9996 5V10C21.9996 10.2652 22.105 10.5196 22.2925 10.7071C22.48 10.8946 22.7344 11 22.9996 11C23.2648 11 23.5192 10.8946 23.7067 10.7071C23.8942 10.5196 23.9996 10.2652 23.9996 10V5C23.998 3.67441 23.4707 2.40356 22.5334 1.46622C21.596 0.528882 20.3252 0.00158786 18.9996 0V0Z" fill="white"/>
<path d="M6 10C6.79113 10 7.56448 9.76541 8.22228 9.32588C8.88008 8.88635 9.39277 8.26164 9.69552 7.53074C9.99827 6.79983 10.0775 5.99556 9.92314 5.21964C9.7688 4.44372 9.38784 3.73098 8.82843 3.17157C8.26902 2.61216 7.55629 2.2312 6.78036 2.07686C6.00444 1.92252 5.20017 2.00173 4.46927 2.30448C3.73836 2.60723 3.11365 3.11992 2.67412 3.77772C2.2346 4.43552 2 5.20888 2 6C2 7.06087 2.42143 8.07828 3.17157 8.82843C3.92172 9.57857 4.93913 10 6 10ZM6 4C6.39556 4 6.78224 4.1173 7.11114 4.33706C7.44004 4.55683 7.69638 4.86918 7.84776 5.23463C7.99913 5.60009 8.03874 6.00222 7.96157 6.39018C7.8844 6.77814 7.69392 7.13451 7.41421 7.41422C7.13451 7.69392 6.77814 7.8844 6.39018 7.96157C6.00222 8.03874 5.60009 7.99914 5.23463 7.84776C4.86918 7.69639 4.55682 7.44004 4.33706 7.11114C4.1173 6.78224 4 6.39556 4 6C4 5.46957 4.21071 4.96086 4.58579 4.58579C4.96086 4.21072 5.46957 4 6 4Z" fill="white"/>
<path d="M18 14C17.2089 14 16.4355 14.2346 15.7777 14.6741C15.1199 15.1136 14.6072 15.7384 14.3045 16.4693C14.0017 17.2002 13.9225 18.0044 14.0769 18.7804C14.2312 19.5563 14.6122 20.269 15.1716 20.8284C15.731 21.3878 16.4437 21.7688 17.2196 21.9231C17.9956 22.0775 18.7998 21.9983 19.5307 21.6955C20.2616 21.3928 20.8864 20.8801 21.3259 20.2223C21.7654 19.5645 22 18.7911 22 18C22 16.9391 21.5786 15.9217 20.8284 15.1716C20.0783 14.4214 19.0609 14 18 14ZM18 20C17.6044 20 17.2178 19.8827 16.8889 19.6629C16.56 19.4432 16.3036 19.1308 16.1522 18.7654C16.0009 18.3999 15.9613 17.9978 16.0384 17.6098C16.1156 17.2219 16.3061 16.8655 16.5858 16.5858C16.8655 16.3061 17.2219 16.1156 17.6098 16.0384C17.9978 15.9613 18.3999 16.0009 18.7654 16.1522C19.1308 16.3036 19.4432 16.56 19.6629 16.8889C19.8827 17.2178 20 17.6044 20 18C20 18.5304 19.7893 19.0391 19.4142 19.4142C19.0391 19.7893 18.5304 20 18 20Z" fill="white"/>
</g>
<defs>
<clipPath id="clip0_8_15976">
<rect width="24" height="24" fill="white"/>
</clipPath>
</defs>
</svg>
