<svg width="70" height="50" viewBox="0 0 70 50" fill="none" xmlns="http://www.w3.org/2000/svg">
<rect width="70" height="50" rx="25" fill="white"/>
<path d="M36.4645 13.75H31.25C28.893 13.75 27.7145 13.75 26.9822 14.4822C26.25 15.2145 26.25 16.393 26.25 18.75V31.25C26.25 33.607 26.25 34.7855 26.9822 35.5178C27.7145 36.25 28.893 36.25 31.25 36.25H38.75C41.107 36.25 42.2855 36.25 43.0178 35.5178C43.75 34.7855 43.75 33.607 43.75 31.25V21.0355C43.75 20.5246 43.75 20.2691 43.6548 20.0394C43.5597 19.8097 43.3791 19.6291 43.0178 19.2678L38.2322 14.4822C37.8709 14.1209 37.6903 13.9403 37.4606 13.8452C37.2309 13.75 36.9754 13.75 36.4645 13.75Z" stroke="#21466D" stroke-width="2"/>
<path d="M31.25 26.25L38.75 26.25" stroke="#21466D" stroke-width="2" stroke-linecap="round"/>
<path d="M31.25 31.25L36.25 31.25" stroke="#21466D" stroke-width="2" stroke-linecap="round"/>
<path d="M36.25 13.75V18.75C36.25 19.9285 36.25 20.5178 36.6161 20.8839C36.9822 21.25 37.5715 21.25 38.75 21.25H43.75" stroke="#21466D" stroke-width="2"/>
</svg>
