<svg width="80" height="45" viewBox="0 0 80 45" fill="none" xmlns="http://www.w3.org/2000/svg">
<rect x="1" y="1" width="78" height="43" rx="21.5" fill="#FFC82A"/>
<rect x="1" y="1" width="78" height="43" rx="21.5" stroke="#FFC82A" stroke-width="2"/>
<path d="M40 12.995C42.717 12.995 43.056 13.0045 44.122 13.052C45.187 13.0995 45.912 13.2583 46.55 13.494C47.21 13.7354 47.766 14.0624 48.322 14.5899C48.8305 15.0651 49.224 15.6398 49.475 16.2742C49.722 16.8797 49.89 17.5697 49.94 18.582C49.987 19.5953 50 19.9175 50 22.5C50 25.0825 49.99 25.4047 49.94 26.418C49.89 27.4302 49.722 28.1194 49.475 28.7258C49.2247 29.3605 48.8311 29.9354 48.322 30.4101C47.822 30.8932 47.2173 31.2672 46.55 31.506C45.913 31.7408 45.187 31.9005 44.122 31.948C43.056 31.9927 42.717 32.005 40 32.005C37.283 32.005 36.944 31.9955 35.878 31.948C34.813 31.9005 34.088 31.7408 33.45 31.506C32.7823 31.2679 32.1775 30.8938 31.678 30.4101C31.1694 29.935 30.7759 29.3602 30.525 28.7258C30.277 28.1203 30.11 27.4302 30.06 26.418C30.013 25.4047 30 25.0825 30 22.5C30 19.9175 30.01 19.5953 30.06 18.582C30.11 17.5688 30.277 16.8806 30.525 16.2742C30.7752 15.6394 31.1688 15.0645 31.678 14.5899C32.1777 14.1063 32.7824 13.7323 33.45 13.494C34.088 13.2583 34.812 13.0995 35.878 13.052C36.944 13.0073 37.283 12.995 40 12.995ZM40 17.7475C38.6739 17.7475 37.4021 18.2482 36.4645 19.1395C35.5268 20.0307 35 21.2395 35 22.5C35 23.7604 35.5268 24.9693 36.4645 25.8605C37.4021 26.7518 38.6739 27.2525 40 27.2525C41.3261 27.2525 42.5979 26.7518 43.5355 25.8605C44.4732 24.9693 45 23.7604 45 22.5C45 21.2395 44.4732 20.0307 43.5355 19.1395C42.5979 18.2482 41.3261 17.7475 40 17.7475ZM46.5 17.5099C46.5 17.1947 46.3683 16.8925 46.1339 16.6697C45.8995 16.4469 45.5815 16.3217 45.25 16.3217C44.9185 16.3217 44.6005 16.4469 44.3661 16.6697C44.1317 16.8925 44 17.1947 44 17.5099C44 17.825 44.1317 18.1272 44.3661 18.35C44.6005 18.5728 44.9185 18.698 45.25 18.698C45.5815 18.698 45.8995 18.5728 46.1339 18.35C46.3683 18.1272 46.5 17.825 46.5 17.5099ZM40 19.6485C40.7956 19.6485 41.5587 19.9489 42.1213 20.4837C42.6839 21.0184 43 21.7437 43 22.5C43 23.2563 42.6839 23.9815 42.1213 24.5163C41.5587 25.0511 40.7956 25.3515 40 25.3515C39.2044 25.3515 38.4413 25.0511 37.8787 24.5163C37.3161 23.9815 37 23.2563 37 22.5C37 21.7437 37.3161 21.0184 37.8787 20.4837C38.4413 19.9489 39.2044 19.6485 40 19.6485Z" fill="#21466D"/>
</svg>
