<svg width="56" height="57" viewBox="0 0 56 57" fill="none" xmlns="http://www.w3.org/2000/svg">
<rect y="0.5" width="56" height="56" rx="28" fill="white"/>
<path fill-rule="evenodd" clip-rule="evenodd" d="M20.575 19.575C22.5443 17.6058 25.2151 16.4995 28 16.4995C30.7849 16.4995 33.4558 17.6058 35.425 19.575C37.3943 21.5442 38.5006 24.2151 38.5006 27C38.5006 29.7849 37.3943 32.4558 35.425 34.425L28 41.85L20.575 34.425C19.5999 33.45 18.8264 32.2924 18.2986 31.0184C17.7709 29.7444 17.4993 28.379 17.4993 27C17.4993 25.621 17.7709 24.2556 18.2986 22.9816C18.8264 21.7076 19.5999 20.55 20.575 19.575ZM28 30C28.7957 30 29.5587 29.6839 30.1213 29.1213C30.684 28.5587 31 27.7956 31 27C31 26.2043 30.684 25.4413 30.1213 24.8787C29.5587 24.3161 28.7957 24 28 24C27.2044 24 26.4413 24.3161 25.8787 24.8787C25.3161 25.4413 25 26.2043 25 27C25 27.7956 25.3161 28.5587 25.8787 29.1213C26.4413 29.6839 27.2044 30 28 30Z" fill="#21466D"/>
</svg>
