<svg width="57" height="57" viewBox="0 0 57 57" fill="none" xmlns="http://www.w3.org/2000/svg">
<rect x="0.333374" y="0.5" width="56" height="56" rx="28" fill="white"/>
<path d="M14.3334 19.75C14.3334 18.8217 14.7021 17.9315 15.3585 17.2751C16.0149 16.6187 16.9051 16.25 17.8334 16.25H30.0834C31.0116 16.25 31.9019 16.6187 32.5582 17.2751C33.2146 17.9315 33.5834 18.8217 33.5834 19.75V26.75C33.5834 27.6783 33.2146 28.5685 32.5582 29.2249C31.9019 29.8813 31.0116 30.25 30.0834 30.25H26.5834L21.3334 35.5V30.25H17.8334C16.9051 30.25 16.0149 29.8813 15.3585 29.2249C14.7021 28.5685 14.3334 27.6783 14.3334 26.75V19.75Z" fill="#21466D"/>
<path d="M37.0834 23.25V26.75C37.0834 28.6065 36.3459 30.387 35.0331 31.6997C33.7204 33.0125 31.9399 33.75 30.0834 33.75H28.0324L24.9419 36.8423C25.4319 37.103 25.9901 37.25 26.5834 37.25H30.0834L35.3334 42.5V37.25H38.8334C39.7616 37.25 40.6519 36.8813 41.3082 36.2249C41.9646 35.5685 42.3334 34.6783 42.3334 33.75V26.75C42.3334 25.8217 41.9646 24.9315 41.3082 24.2751C40.6519 23.6187 39.7616 23.25 38.8334 23.25H37.0834Z" fill="#21466D"/>
</svg>
