<svg width="70" height="50" viewBox="0 0 70 50" fill="none" xmlns="http://www.w3.org/2000/svg">
<rect width="70" height="50" rx="25" fill="white"/>
<path d="M42.9412 27.5H44.25C45.1928 27.5 45.6642 27.5 45.9571 27.2071C46.25 26.9142 46.25 26.4428 46.25 25.5V22.75C46.25 20.8644 46.25 19.9216 45.6642 19.3358C45.0784 18.75 44.1356 18.75 42.25 18.75H27.75C25.8644 18.75 24.9216 18.75 24.3358 19.3358C23.75 19.9216 23.75 20.8644 23.75 22.75V26.5C23.75 26.9714 23.75 27.2071 23.8964 27.3536C24.0429 27.5 24.2786 27.5 24.75 27.5H27.0588" stroke="#21466D" stroke-width="2"/>
<path d="M27.5 35.5563L27.5 24.5C27.5 23.5572 27.5 23.0858 27.7929 22.7929C28.0858 22.5 28.5572 22.5 29.5 22.5L40.5 22.5C41.4428 22.5 41.9142 22.5 42.2071 22.7929C42.5 23.0858 42.5 23.5572 42.5 24.5L42.5 35.5563C42.5 35.8728 42.5 36.0311 42.3962 36.106C42.2924 36.1808 42.1422 36.1307 41.8419 36.0306L38.9081 35.0527C38.8298 35.0266 38.7906 35.0135 38.75 35.0135C38.7094 35.0135 38.6702 35.0266 38.5919 35.0527L35.1581 36.1973C35.0798 36.2234 35.0406 36.2365 35 36.2365C34.9594 36.2365 34.9202 36.2234 34.8419 36.1973L31.4081 35.0527C31.3298 35.0266 31.2906 35.0135 31.25 35.0135C31.2094 35.0135 31.1702 35.0266 31.0919 35.0527L31.0919 35.0527L28.1581 36.0306C27.8578 36.1307 27.7076 36.1808 27.6038 36.106C27.5 36.0311 27.5 35.8728 27.5 35.5563Z" stroke="#21466D" stroke-width="2"/>
<path d="M42.5 18.75V16.63C42.5 15.6219 42.5 15.1179 42.3038 14.7328C42.1312 14.3941 41.8559 14.1188 41.5172 13.9462C41.1321 13.75 40.6281 13.75 39.62 13.75H30.38C29.3719 13.75 28.8679 13.75 28.4828 13.9462C28.1441 14.1188 27.8688 14.3941 27.6962 14.7328C27.5 15.1179 27.5 15.6219 27.5 16.63V18.75" stroke="#21466D" stroke-width="2"/>
<path d="M32.5 27.5L36.25 27.5" stroke="#21466D" stroke-width="2" stroke-linecap="round"/>
<path d="M32.5 31.25L38.125 31.25" stroke="#21466D" stroke-width="2" stroke-linecap="round"/>
</svg>
