<svg width="57" height="57" viewBox="0 0 57 57" fill="none" xmlns="http://www.w3.org/2000/svg">
<rect x="0.666687" y="0.5" width="56" height="56" rx="28" fill="white"/>
<path d="M16.6667 18C16.6667 17.6022 16.8247 17.2206 17.106 16.9393C17.3873 16.658 17.7689 16.5 18.1667 16.5H21.3962C21.7512 16.5002 22.0947 16.6263 22.3656 16.8559C22.6364 17.0855 22.817 17.4037 22.8752 17.754L23.9852 24.4065C24.0382 24.7233 23.9881 25.0488 23.8423 25.335C23.6965 25.6213 23.4627 25.8531 23.1752 25.9965L20.8532 27.156C21.6858 29.2195 22.9259 31.0939 24.4994 32.6673C26.0728 34.2408 27.9472 35.4808 30.0107 36.3135L31.1717 33.9915C31.315 33.7043 31.5466 33.4706 31.8325 33.3248C32.1184 33.179 32.4436 33.1288 32.7602 33.1815L39.4127 34.2915C39.7629 34.3497 40.0812 34.5303 40.3108 34.8011C40.5404 35.072 40.6665 35.4154 40.6667 35.7705V39C40.6667 39.3978 40.5087 39.7794 40.2273 40.0607C39.946 40.342 39.5645 40.5 39.1667 40.5H36.1667C25.3967 40.5 16.6667 31.77 16.6667 21V18Z" fill="#21466D"/>
</svg>
