<svg width="252" height="45" viewBox="0 0 252 45" fill="none" xmlns="http://www.w3.org/2000/svg">
<rect x="1" y="1" width="250" height="43" rx="21.5" stroke="white" stroke-width="2"/>
<path d="M47.7071 24.2071L50.3552 26.8552C50.7113 27.2113 50.7113 27.7887 50.3552 28.1448C48.43 30.07 45.3821 30.2866 43.204 28.653L41.6286 27.4714C39.885 26.1638 38.3362 24.615 37.0286 22.8714L35.847 21.296C34.2134 19.1179 34.43 16.07 36.3552 14.1448C36.7113 13.7887 37.2887 13.7887 37.6448 14.1448L40.2929 16.7929C40.6834 17.1834 40.6834 17.8166 40.2929 18.2071L39.2717 19.2283C39.1095 19.3905 39.0692 19.6385 39.1719 19.8437C40.3585 22.2171 42.2829 24.1415 44.6563 25.3281C44.8615 25.4308 45.1095 25.3905 45.2717 25.2283L46.2929 24.2071C46.6834 23.8166 47.3166 23.8166 47.7071 24.2071Z" fill="url(#paint0_linear_277_1272)"/>
<path d="M47.7071 24.2071L50.3552 26.8552C50.7113 27.2113 50.7113 27.7887 50.3552 28.1448C48.43 30.07 45.3821 30.2866 43.204 28.653L41.6286 27.4714C39.885 26.1638 38.3362 24.615 37.0286 22.8714L35.847 21.296C34.2134 19.1179 34.43 16.07 36.3552 14.1448C36.7113 13.7887 37.2887 13.7887 37.6448 14.1448L40.2929 16.7929C40.6834 17.1834 40.6834 17.8166 40.2929 18.2071L39.2717 19.2283C39.1095 19.3905 39.0692 19.6385 39.1719 19.8437C40.3585 22.2171 42.2829 24.1415 44.6563 25.3281C44.8615 25.4308 45.1095 25.3905 45.2717 25.2283L46.2929 24.2071C46.6834 23.8166 47.3166 23.8166 47.7071 24.2071Z" fill="white"/>
<path d="M73.64 25.5H70.28V28.86H68.38V25.5H65.02V23.6H68.38V20.26H70.28V23.6H73.64V25.5ZM84.2041 19.9C84.2041 21.06 83.7641 22.16 83.1441 23.4L79.9041 30H77.7241L80.7841 23.88C80.4041 24.04 79.9441 24.1 79.5041 24.1C77.4441 24.1 75.7841 22.48 75.7841 19.98C75.7841 17.36 77.5241 15.64 79.9841 15.64C82.4441 15.64 84.2041 17.26 84.2041 19.9ZM82.1641 19.94C82.1641 18.42 81.2641 17.46 79.9841 17.46C78.7041 17.46 77.8241 18.42 77.8241 19.94C77.8241 21.34 78.6241 22.4 79.9841 22.4C81.2641 22.4 82.1641 21.48 82.1641 19.94ZM94.8681 19.9C94.8681 21.06 94.4281 22.16 93.8081 23.4L90.5681 30H88.3881L91.4481 23.88C91.0681 24.04 90.6081 24.1 90.1681 24.1C88.1081 24.1 86.4481 22.48 86.4481 19.98C86.4481 17.36 88.1881 15.64 90.6481 15.64C93.1081 15.64 94.8681 17.26 94.8681 19.9ZM92.8281 19.94C92.8281 18.42 91.9281 17.46 90.6481 17.46C89.3681 17.46 88.4881 18.42 88.4881 19.94C88.4881 21.34 89.2881 22.4 90.6481 22.4C91.9281 22.4 92.8281 21.48 92.8281 19.94ZM105.712 25.98C105.712 28.56 103.752 30.12 101.312 30.12C98.8722 30.12 96.9322 28.56 96.9322 25.98C96.9322 24.28 97.8922 23.24 98.8922 22.64C97.9722 22.08 97.1722 21.08 97.1722 19.58C97.1722 17.2 98.9922 15.64 101.312 15.64C103.632 15.64 105.472 17.2 105.472 19.58C105.472 21.08 104.672 22.08 103.752 22.64C104.752 23.24 105.712 24.28 105.712 25.98ZM103.652 25.94C103.652 24.62 102.632 23.56 101.312 23.56C99.9922 23.56 98.9722 24.62 98.9722 25.94C98.9722 27.26 99.9922 28.3 101.312 28.3C102.632 28.3 103.652 27.26 103.652 25.94ZM103.432 19.64C103.432 18.4 102.552 17.46 101.312 17.46C100.072 17.46 99.2122 18.4 99.2122 19.64C99.2122 20.9 100.072 21.8 101.312 21.8C102.552 21.8 103.432 20.9 103.432 19.64ZM121.201 17.58L116.441 30H114.241L119.021 17.58H114.681V19.82H112.721V15.76H121.201V17.58ZM129.225 30H127.185V17.98L124.405 20.42V18.16L127.185 15.76H129.225V30ZM147.134 30H138.854V28.18L144.334 21.52C144.874 20.86 145.094 20.34 145.094 19.62C145.094 18.34 144.334 17.46 143.014 17.46C141.934 17.46 140.914 18.06 140.914 19.66H138.874C138.874 17.24 140.594 15.64 143.014 15.64C145.454 15.64 147.134 17.18 147.134 19.64C147.134 20.9 146.674 21.64 145.794 22.72L141.334 28.18H147.134V30ZM157.698 26.04C157.698 28.58 155.858 30.12 153.578 30.12C151.318 30.12 149.478 28.58 149.478 26.04V19.72C149.478 17.18 151.318 15.64 153.578 15.64C155.858 15.64 157.698 17.18 157.698 19.72V26.04ZM155.658 25.98V19.78C155.658 18.42 154.878 17.46 153.578 17.46C152.298 17.46 151.518 18.42 151.518 19.78V25.98C151.518 27.34 152.298 28.3 153.578 28.3C154.878 28.3 155.658 27.34 155.658 25.98ZM168.362 26.04C168.362 28.58 166.522 30.12 164.242 30.12C161.982 30.12 160.142 28.58 160.142 26.04V19.72C160.142 17.18 161.982 15.64 164.242 15.64C166.522 15.64 168.362 17.18 168.362 19.72V26.04ZM166.322 25.98V19.78C166.322 18.42 165.542 17.46 164.242 17.46C162.962 17.46 162.182 18.42 162.182 19.78V25.98C162.182 27.34 162.962 28.3 164.242 28.3C165.542 28.3 166.322 27.34 166.322 25.98ZM184.131 17.58L179.371 30H177.171L181.951 17.58H177.611V19.82H175.651V15.76H184.131V17.58ZM194.595 25.78C194.595 28.4 192.855 30.12 190.395 30.12C187.935 30.12 186.175 28.5 186.175 25.86C186.175 24.7 186.615 23.6 187.235 22.36L190.475 15.76H192.655L189.595 21.88C189.975 21.72 190.415 21.66 190.855 21.66C192.915 21.66 194.595 23.28 194.595 25.78ZM192.555 25.82C192.555 24.42 191.735 23.36 190.375 23.36C189.095 23.36 188.215 24.28 188.215 25.82C188.215 27.34 189.095 28.3 190.375 28.3C191.655 28.3 192.555 27.34 192.555 25.82ZM210.263 17.58L205.503 30H203.303L208.083 17.58H203.743V19.82H201.783V15.76H210.263V17.58ZM220.928 17.58L216.168 30H213.968L218.748 17.58H214.408V19.82H212.448V15.76H220.928V17.58Z" fill="url(#paint1_linear_277_1272)"/>
<path d="M73.64 25.5H70.28V28.86H68.38V25.5H65.02V23.6H68.38V20.26H70.28V23.6H73.64V25.5ZM84.2041 19.9C84.2041 21.06 83.7641 22.16 83.1441 23.4L79.9041 30H77.7241L80.7841 23.88C80.4041 24.04 79.9441 24.1 79.5041 24.1C77.4441 24.1 75.7841 22.48 75.7841 19.98C75.7841 17.36 77.5241 15.64 79.9841 15.64C82.4441 15.64 84.2041 17.26 84.2041 19.9ZM82.1641 19.94C82.1641 18.42 81.2641 17.46 79.9841 17.46C78.7041 17.46 77.8241 18.42 77.8241 19.94C77.8241 21.34 78.6241 22.4 79.9841 22.4C81.2641 22.4 82.1641 21.48 82.1641 19.94ZM94.8681 19.9C94.8681 21.06 94.4281 22.16 93.8081 23.4L90.5681 30H88.3881L91.4481 23.88C91.0681 24.04 90.6081 24.1 90.1681 24.1C88.1081 24.1 86.4481 22.48 86.4481 19.98C86.4481 17.36 88.1881 15.64 90.6481 15.64C93.1081 15.64 94.8681 17.26 94.8681 19.9ZM92.8281 19.94C92.8281 18.42 91.9281 17.46 90.6481 17.46C89.3681 17.46 88.4881 18.42 88.4881 19.94C88.4881 21.34 89.2881 22.4 90.6481 22.4C91.9281 22.4 92.8281 21.48 92.8281 19.94ZM105.712 25.98C105.712 28.56 103.752 30.12 101.312 30.12C98.8722 30.12 96.9322 28.56 96.9322 25.98C96.9322 24.28 97.8922 23.24 98.8922 22.64C97.9722 22.08 97.1722 21.08 97.1722 19.58C97.1722 17.2 98.9922 15.64 101.312 15.64C103.632 15.64 105.472 17.2 105.472 19.58C105.472 21.08 104.672 22.08 103.752 22.64C104.752 23.24 105.712 24.28 105.712 25.98ZM103.652 25.94C103.652 24.62 102.632 23.56 101.312 23.56C99.9922 23.56 98.9722 24.62 98.9722 25.94C98.9722 27.26 99.9922 28.3 101.312 28.3C102.632 28.3 103.652 27.26 103.652 25.94ZM103.432 19.64C103.432 18.4 102.552 17.46 101.312 17.46C100.072 17.46 99.2122 18.4 99.2122 19.64C99.2122 20.9 100.072 21.8 101.312 21.8C102.552 21.8 103.432 20.9 103.432 19.64ZM121.201 17.58L116.441 30H114.241L119.021 17.58H114.681V19.82H112.721V15.76H121.201V17.58ZM129.225 30H127.185V17.98L124.405 20.42V18.16L127.185 15.76H129.225V30ZM147.134 30H138.854V28.18L144.334 21.52C144.874 20.86 145.094 20.34 145.094 19.62C145.094 18.34 144.334 17.46 143.014 17.46C141.934 17.46 140.914 18.06 140.914 19.66H138.874C138.874 17.24 140.594 15.64 143.014 15.64C145.454 15.64 147.134 17.18 147.134 19.64C147.134 20.9 146.674 21.64 145.794 22.72L141.334 28.18H147.134V30ZM157.698 26.04C157.698 28.58 155.858 30.12 153.578 30.12C151.318 30.12 149.478 28.58 149.478 26.04V19.72C149.478 17.18 151.318 15.64 153.578 15.64C155.858 15.64 157.698 17.18 157.698 19.72V26.04ZM155.658 25.98V19.78C155.658 18.42 154.878 17.46 153.578 17.46C152.298 17.46 151.518 18.42 151.518 19.78V25.98C151.518 27.34 152.298 28.3 153.578 28.3C154.878 28.3 155.658 27.34 155.658 25.98ZM168.362 26.04C168.362 28.58 166.522 30.12 164.242 30.12C161.982 30.12 160.142 28.58 160.142 26.04V19.72C160.142 17.18 161.982 15.64 164.242 15.64C166.522 15.64 168.362 17.18 168.362 19.72V26.04ZM166.322 25.98V19.78C166.322 18.42 165.542 17.46 164.242 17.46C162.962 17.46 162.182 18.42 162.182 19.78V25.98C162.182 27.34 162.962 28.3 164.242 28.3C165.542 28.3 166.322 27.34 166.322 25.98ZM184.131 17.58L179.371 30H177.171L181.951 17.58H177.611V19.82H175.651V15.76H184.131V17.58ZM194.595 25.78C194.595 28.4 192.855 30.12 190.395 30.12C187.935 30.12 186.175 28.5 186.175 25.86C186.175 24.7 186.615 23.6 187.235 22.36L190.475 15.76H192.655L189.595 21.88C189.975 21.72 190.415 21.66 190.855 21.66C192.915 21.66 194.595 23.28 194.595 25.78ZM192.555 25.82C192.555 24.42 191.735 23.36 190.375 23.36C189.095 23.36 188.215 24.28 188.215 25.82C188.215 27.34 189.095 28.3 190.375 28.3C191.655 28.3 192.555 27.34 192.555 25.82ZM210.263 17.58L205.503 30H203.303L208.083 17.58H203.743V19.82H201.783V15.76H210.263V17.58ZM220.928 17.58L216.168 30H213.968L218.748 17.58H214.408V19.82H212.448V15.76H220.928V17.58Z" fill="white"/>
<defs>
<linearGradient id="paint0_linear_277_1272" x1="33" y1="22.5" x2="51" y2="22.5" gradientUnits="userSpaceOnUse">
<stop stop-color="#004486"/>
<stop offset="0.495994" stop-color="#0058AC"/>
<stop offset="1" stop-color="#004486"/>
</linearGradient>
<linearGradient id="paint1_linear_277_1272" x1="64" y1="22.5" x2="222" y2="22.5" gradientUnits="userSpaceOnUse">
<stop stop-color="#004486"/>
<stop offset="0.495994" stop-color="#0058AC"/>
<stop offset="1" stop-color="#004486"/>
</linearGradient>
</defs>
</svg>
