<svg width="205" height="45" viewBox="0 0 205 45" fill="none" xmlns="http://www.w3.org/2000/svg">
<rect x="1" y="1" width="203" height="43" rx="21.5" stroke="white" stroke-width="2"/>
<path d="M47.7071 24.2071L50.3552 26.8552C50.7113 27.2113 50.7113 27.7887 50.3552 28.1448C48.43 30.07 45.3821 30.2866 43.204 28.653L41.6286 27.4714C39.885 26.1638 38.3362 24.615 37.0286 22.8714L35.847 21.296C34.2134 19.1179 34.43 16.07 36.3552 14.1448C36.7113 13.7887 37.2887 13.7887 37.6448 14.1448L40.2929 16.7929C40.6834 17.1834 40.6834 17.8166 40.2929 18.2071L39.2717 19.2283C39.1095 19.3905 39.0692 19.6385 39.1719 19.8437C40.3585 22.2171 42.2829 24.1415 44.6563 25.3281C44.8615 25.4308 45.1095 25.3905 45.2717 25.2283L46.2929 24.2071C46.6834 23.8166 47.3166 23.8166 47.7071 24.2071Z" fill="url(#paint0_linear_277_1272)"/>
<path d="M47.7071 24.2071L50.3552 26.8552C50.7113 27.2113 50.7113 27.7887 50.3552 28.1448C48.43 30.07 45.3821 30.2866 43.204 28.653L41.6286 27.4714C39.885 26.1638 38.3362 24.615 37.0286 22.8714L35.847 21.296C34.2134 19.1179 34.43 16.07 36.3552 14.1448C36.7113 13.7887 37.2887 13.7887 37.6448 14.1448L40.2929 16.7929C40.6834 17.1834 40.6834 17.8166 40.2929 18.2071L39.2717 19.2283C39.1095 19.3905 39.0692 19.6385 39.1719 19.8437C40.3585 22.2171 42.2829 24.1415 44.6563 25.3281C44.8615 25.4308 45.1095 25.3905 45.2717 25.2283L46.2929 24.2071C46.6834 23.8166 47.3166 23.8166 47.7071 24.2071Z" fill="white"/>
<path d="M73.74 17.58L68.98 30H66.78L71.56 17.58H67.22V19.82H65.26V15.76H73.74V17.58ZM84.3841 25.98C84.3841 28.56 82.4241 30.12 79.9841 30.12C77.5441 30.12 75.6041 28.56 75.6041 25.98C75.6041 24.28 76.5641 23.24 77.5641 22.64C76.6441 22.08 75.8441 21.08 75.8441 19.58C75.8441 17.2 77.6641 15.64 79.9841 15.64C82.3041 15.64 84.1441 17.2 84.1441 19.58C84.1441 21.08 83.3441 22.08 82.4241 22.64C83.4241 23.24 84.3841 24.28 84.3841 25.98ZM82.3241 25.94C82.3241 24.62 81.3041 23.56 79.9841 23.56C78.6641 23.56 77.6441 24.62 77.6441 25.94C77.6441 27.26 78.6641 28.3 79.9841 28.3C81.3041 28.3 82.3241 27.26 82.3241 25.94ZM82.1041 19.64C82.1041 18.4 81.2241 17.46 79.9841 17.46C78.7441 17.46 77.8841 18.4 77.8841 19.64C77.8841 20.9 78.7441 21.8 79.9841 21.8C81.2241 21.8 82.1041 20.9 82.1041 19.64ZM99.8528 25.98C99.8528 28.56 97.8928 30.12 95.4528 30.12C93.0128 30.12 91.0728 28.56 91.0728 25.98C91.0728 24.28 92.0328 23.24 93.0328 22.64C92.1128 22.08 91.3128 21.08 91.3128 19.58C91.3128 17.2 93.1328 15.64 95.4528 15.64C97.7728 15.64 99.6128 17.2 99.6128 19.58C99.6128 21.08 98.8128 22.08 97.8928 22.64C98.8928 23.24 99.8528 24.28 99.8528 25.98ZM97.7928 25.94C97.7928 24.62 96.7728 23.56 95.4528 23.56C94.1328 23.56 93.1128 24.62 93.1128 25.94C93.1128 27.26 94.1328 28.3 95.4528 28.3C96.7728 28.3 97.7928 27.26 97.7928 25.94ZM97.5728 19.64C97.5728 18.4 96.6928 17.46 95.4528 17.46C94.2128 17.46 93.3528 18.4 93.3528 19.64C93.3528 20.9 94.2128 21.8 95.4528 21.8C96.6928 21.8 97.5728 20.9 97.5728 19.64ZM110.517 25.98C110.517 28.56 108.557 30.12 106.117 30.12C103.677 30.12 101.737 28.56 101.737 25.98C101.737 24.28 102.697 23.24 103.697 22.64C102.777 22.08 101.977 21.08 101.977 19.58C101.977 17.2 103.797 15.64 106.117 15.64C108.437 15.64 110.277 17.2 110.277 19.58C110.277 21.08 109.477 22.08 108.557 22.64C109.557 23.24 110.517 24.28 110.517 25.98ZM108.457 25.94C108.457 24.62 107.437 23.56 106.117 23.56C104.797 23.56 103.777 24.62 103.777 25.94C103.777 27.26 104.797 28.3 106.117 28.3C107.437 28.3 108.457 27.26 108.457 25.94ZM108.237 19.64C108.237 18.4 107.357 17.46 106.117 17.46C104.877 17.46 104.017 18.4 104.017 19.64C104.017 20.9 104.877 21.8 106.117 21.8C107.357 21.8 108.237 20.9 108.237 19.64ZM121.181 25.98C121.181 28.56 119.221 30.12 116.781 30.12C114.341 30.12 112.401 28.56 112.401 25.98C112.401 24.28 113.361 23.24 114.361 22.64C113.441 22.08 112.641 21.08 112.641 19.58C112.641 17.2 114.461 15.64 116.781 15.64C119.101 15.64 120.941 17.2 120.941 19.58C120.941 21.08 120.141 22.08 119.221 22.64C120.221 23.24 121.181 24.28 121.181 25.98ZM119.121 25.94C119.121 24.62 118.101 23.56 116.781 23.56C115.461 23.56 114.441 24.62 114.441 25.94C114.441 27.26 115.461 28.3 116.781 28.3C118.101 28.3 119.121 27.26 119.121 25.94ZM118.901 19.64C118.901 18.4 118.021 17.46 116.781 17.46C115.541 17.46 114.681 18.4 114.681 19.64C114.681 20.9 115.541 21.8 116.781 21.8C118.021 21.8 118.901 20.9 118.901 19.64ZM136.49 26C136.49 28.74 134.51 30.14 132.13 30.14C129.85 30.14 127.85 28.92 127.77 26.14H129.81C129.89 27.66 130.95 28.3 132.13 28.3C133.45 28.3 134.45 27.44 134.45 25.94C134.45 24.5 133.67 23.6 132.07 23.6H131.73V21.82H132.07C133.55 21.82 134.23 20.96 134.23 19.66C134.23 18.22 133.29 17.46 132.13 17.46C130.89 17.46 130.09 18.24 129.99 19.5H127.95C128.07 17.08 129.85 15.62 132.13 15.62C134.55 15.62 136.27 17.24 136.27 19.6C136.27 21.12 135.59 22.1 134.49 22.64C135.71 23.18 136.49 24.24 136.49 26ZM147.314 25.98C147.314 28.56 145.354 30.12 142.914 30.12C140.474 30.12 138.534 28.56 138.534 25.98C138.534 24.28 139.494 23.24 140.494 22.64C139.574 22.08 138.774 21.08 138.774 19.58C138.774 17.2 140.594 15.64 142.914 15.64C145.234 15.64 147.074 17.2 147.074 19.58C147.074 21.08 146.274 22.08 145.354 22.64C146.354 23.24 147.314 24.28 147.314 25.98ZM145.254 25.94C145.254 24.62 144.234 23.56 142.914 23.56C141.594 23.56 140.574 24.62 140.574 25.94C140.574 27.26 141.594 28.3 142.914 28.3C144.234 28.3 145.254 27.26 145.254 25.94ZM145.034 19.64C145.034 18.4 144.154 17.46 142.914 17.46C141.674 17.46 140.814 18.4 140.814 19.64C140.814 20.9 141.674 21.8 142.914 21.8C144.154 21.8 145.034 20.9 145.034 19.64ZM162.783 25.98C162.783 28.56 160.823 30.12 158.383 30.12C155.943 30.12 154.003 28.56 154.003 25.98C154.003 24.28 154.963 23.24 155.963 22.64C155.043 22.08 154.243 21.08 154.243 19.58C154.243 17.2 156.063 15.64 158.383 15.64C160.703 15.64 162.543 17.2 162.543 19.58C162.543 21.08 161.743 22.08 160.823 22.64C161.823 23.24 162.783 24.28 162.783 25.98ZM160.723 25.94C160.723 24.62 159.703 23.56 158.383 23.56C157.063 23.56 156.043 24.62 156.043 25.94C156.043 27.26 157.063 28.3 158.383 28.3C159.703 28.3 160.723 27.26 160.723 25.94ZM160.503 19.64C160.503 18.4 159.623 17.46 158.383 17.46C157.143 17.46 156.283 18.4 156.283 19.64C156.283 20.9 157.143 21.8 158.383 21.8C159.623 21.8 160.503 20.9 160.503 19.64ZM173.447 25.98C173.447 28.56 171.487 30.12 169.047 30.12C166.607 30.12 164.667 28.56 164.667 25.98C164.667 24.28 165.627 23.24 166.627 22.64C165.707 22.08 164.907 21.08 164.907 19.58C164.907 17.2 166.727 15.64 169.047 15.64C171.367 15.64 173.207 17.2 173.207 19.58C173.207 21.08 172.407 22.08 171.487 22.64C172.487 23.24 173.447 24.28 173.447 25.98ZM171.387 25.94C171.387 24.62 170.367 23.56 169.047 23.56C167.727 23.56 166.707 24.62 166.707 25.94C166.707 27.26 167.727 28.3 169.047 28.3C170.367 28.3 171.387 27.26 171.387 25.94ZM171.167 19.64C171.167 18.4 170.287 17.46 169.047 17.46C167.807 17.46 166.947 18.4 166.947 19.64C166.947 20.9 167.807 21.8 169.047 21.8C170.287 21.8 171.167 20.9 171.167 19.64Z" fill="url(#paint1_linear_277_1272)"/>
<path d="M73.74 17.58L68.98 30H66.78L71.56 17.58H67.22V19.82H65.26V15.76H73.74V17.58ZM84.3841 25.98C84.3841 28.56 82.4241 30.12 79.9841 30.12C77.5441 30.12 75.6041 28.56 75.6041 25.98C75.6041 24.28 76.5641 23.24 77.5641 22.64C76.6441 22.08 75.8441 21.08 75.8441 19.58C75.8441 17.2 77.6641 15.64 79.9841 15.64C82.3041 15.64 84.1441 17.2 84.1441 19.58C84.1441 21.08 83.3441 22.08 82.4241 22.64C83.4241 23.24 84.3841 24.28 84.3841 25.98ZM82.3241 25.94C82.3241 24.62 81.3041 23.56 79.9841 23.56C78.6641 23.56 77.6441 24.62 77.6441 25.94C77.6441 27.26 78.6641 28.3 79.9841 28.3C81.3041 28.3 82.3241 27.26 82.3241 25.94ZM82.1041 19.64C82.1041 18.4 81.2241 17.46 79.9841 17.46C78.7441 17.46 77.8841 18.4 77.8841 19.64C77.8841 20.9 78.7441 21.8 79.9841 21.8C81.2241 21.8 82.1041 20.9 82.1041 19.64ZM99.8528 25.98C99.8528 28.56 97.8928 30.12 95.4528 30.12C93.0128 30.12 91.0728 28.56 91.0728 25.98C91.0728 24.28 92.0328 23.24 93.0328 22.64C92.1128 22.08 91.3128 21.08 91.3128 19.58C91.3128 17.2 93.1328 15.64 95.4528 15.64C97.7728 15.64 99.6128 17.2 99.6128 19.58C99.6128 21.08 98.8128 22.08 97.8928 22.64C98.8928 23.24 99.8528 24.28 99.8528 25.98ZM97.7928 25.94C97.7928 24.62 96.7728 23.56 95.4528 23.56C94.1328 23.56 93.1128 24.62 93.1128 25.94C93.1128 27.26 94.1328 28.3 95.4528 28.3C96.7728 28.3 97.7928 27.26 97.7928 25.94ZM97.5728 19.64C97.5728 18.4 96.6928 17.46 95.4528 17.46C94.2128 17.46 93.3528 18.4 93.3528 19.64C93.3528 20.9 94.2128 21.8 95.4528 21.8C96.6928 21.8 97.5728 20.9 97.5728 19.64ZM110.517 25.98C110.517 28.56 108.557 30.12 106.117 30.12C103.677 30.12 101.737 28.56 101.737 25.98C101.737 24.28 102.697 23.24 103.697 22.64C102.777 22.08 101.977 21.08 101.977 19.58C101.977 17.2 103.797 15.64 106.117 15.64C108.437 15.64 110.277 17.2 110.277 19.58C110.277 21.08 109.477 22.08 108.557 22.64C109.557 23.24 110.517 24.28 110.517 25.98ZM108.457 25.94C108.457 24.62 107.437 23.56 106.117 23.56C104.797 23.56 103.777 24.62 103.777 25.94C103.777 27.26 104.797 28.3 106.117 28.3C107.437 28.3 108.457 27.26 108.457 25.94ZM108.237 19.64C108.237 18.4 107.357 17.46 106.117 17.46C104.877 17.46 104.017 18.4 104.017 19.64C104.017 20.9 104.877 21.8 106.117 21.8C107.357 21.8 108.237 20.9 108.237 19.64ZM121.181 25.98C121.181 28.56 119.221 30.12 116.781 30.12C114.341 30.12 112.401 28.56 112.401 25.98C112.401 24.28 113.361 23.24 114.361 22.64C113.441 22.08 112.641 21.08 112.641 19.58C112.641 17.2 114.461 15.64 116.781 15.64C119.101 15.64 120.941 17.2 120.941 19.58C120.941 21.08 120.141 22.08 119.221 22.64C120.221 23.24 121.181 24.28 121.181 25.98ZM119.121 25.94C119.121 24.62 118.101 23.56 116.781 23.56C115.461 23.56 114.441 24.62 114.441 25.94C114.441 27.26 115.461 28.3 116.781 28.3C118.101 28.3 119.121 27.26 119.121 25.94ZM118.901 19.64C118.901 18.4 118.021 17.46 116.781 17.46C115.541 17.46 114.681 18.4 114.681 19.64C114.681 20.9 115.541 21.8 116.781 21.8C118.021 21.8 118.901 20.9 118.901 19.64ZM136.49 26C136.49 28.74 134.51 30.14 132.13 30.14C129.85 30.14 127.85 28.92 127.77 26.14H129.81C129.89 27.66 130.95 28.3 132.13 28.3C133.45 28.3 134.45 27.44 134.45 25.94C134.45 24.5 133.67 23.6 132.07 23.6H131.73V21.82H132.07C133.55 21.82 134.23 20.96 134.23 19.66C134.23 18.22 133.29 17.46 132.13 17.46C130.89 17.46 130.09 18.24 129.99 19.5H127.95C128.07 17.08 129.85 15.62 132.13 15.62C134.55 15.62 136.27 17.24 136.27 19.6C136.27 21.12 135.59 22.1 134.49 22.64C135.71 23.18 136.49 24.24 136.49 26ZM147.314 25.98C147.314 28.56 145.354 30.12 142.914 30.12C140.474 30.12 138.534 28.56 138.534 25.98C138.534 24.28 139.494 23.24 140.494 22.64C139.574 22.08 138.774 21.08 138.774 19.58C138.774 17.2 140.594 15.64 142.914 15.64C145.234 15.64 147.074 17.2 147.074 19.58C147.074 21.08 146.274 22.08 145.354 22.64C146.354 23.24 147.314 24.28 147.314 25.98ZM145.254 25.94C145.254 24.62 144.234 23.56 142.914 23.56C141.594 23.56 140.574 24.62 140.574 25.94C140.574 27.26 141.594 28.3 142.914 28.3C144.234 28.3 145.254 27.26 145.254 25.94ZM145.034 19.64C145.034 18.4 144.154 17.46 142.914 17.46C141.674 17.46 140.814 18.4 140.814 19.64C140.814 20.9 141.674 21.8 142.914 21.8C144.154 21.8 145.034 20.9 145.034 19.64ZM162.783 25.98C162.783 28.56 160.823 30.12 158.383 30.12C155.943 30.12 154.003 28.56 154.003 25.98C154.003 24.28 154.963 23.24 155.963 22.64C155.043 22.08 154.243 21.08 154.243 19.58C154.243 17.2 156.063 15.64 158.383 15.64C160.703 15.64 162.543 17.2 162.543 19.58C162.543 21.08 161.743 22.08 160.823 22.64C161.823 23.24 162.783 24.28 162.783 25.98ZM160.723 25.94C160.723 24.62 159.703 23.56 158.383 23.56C157.063 23.56 156.043 24.62 156.043 25.94C156.043 27.26 157.063 28.3 158.383 28.3C159.703 28.3 160.723 27.26 160.723 25.94ZM160.503 19.64C160.503 18.4 159.623 17.46 158.383 17.46C157.143 17.46 156.283 18.4 156.283 19.64C156.283 20.9 157.143 21.8 158.383 21.8C159.623 21.8 160.503 20.9 160.503 19.64ZM173.447 25.98C173.447 28.56 171.487 30.12 169.047 30.12C166.607 30.12 164.667 28.56 164.667 25.98C164.667 24.28 165.627 23.24 166.627 22.64C165.707 22.08 164.907 21.08 164.907 19.58C164.907 17.2 166.727 15.64 169.047 15.64C171.367 15.64 173.207 17.2 173.207 19.58C173.207 21.08 172.407 22.08 171.487 22.64C172.487 23.24 173.447 24.28 173.447 25.98ZM171.387 25.94C171.387 24.62 170.367 23.56 169.047 23.56C167.727 23.56 166.707 24.62 166.707 25.94C166.707 27.26 167.727 28.3 169.047 28.3C170.367 28.3 171.387 27.26 171.387 25.94ZM171.167 19.64C171.167 18.4 170.287 17.46 169.047 17.46C167.807 17.46 166.947 18.4 166.947 19.64C166.947 20.9 167.807 21.8 169.047 21.8C170.287 21.8 171.167 20.9 171.167 19.64Z" fill="white"/>
<defs>
<linearGradient id="paint0_linear_277_1272" x1="33" y1="22.5" x2="51" y2="22.5" gradientUnits="userSpaceOnUse">
<stop stop-color="#004486"/>
<stop offset="0.495994" stop-color="#0058AC"/>
<stop offset="1" stop-color="#004486"/>
</linearGradient>
<linearGradient id="paint1_linear_277_1272" x1="64" y1="22.5" x2="175" y2="22.5" gradientUnits="userSpaceOnUse">
<stop stop-color="#004486"/>
<stop offset="0.495994" stop-color="#0058AC"/>
<stop offset="1" stop-color="#004486"/>
</linearGradient>
</defs>
</svg>
