<svg width="70" height="50" viewBox="0 0 70 50" fill="none" xmlns="http://www.w3.org/2000/svg">
<rect width="70" height="50" rx="25" fill="white"/>
<path fill-rule="evenodd" clip-rule="evenodd" d="M43.2975 16.683C42.9186 16.7504 42.3813 16.9267 41.5212 17.2135L32.4588 20.2343C30.8282 20.7778 29.6763 21.1629 28.8827 21.5145C28.4894 21.6887 28.2334 21.8339 28.0709 21.9561C27.9315 22.061 27.8997 22.12 27.8963 22.1271C27.8002 22.3663 27.8002 22.6335 27.8963 22.8727C27.8929 22.8642 27.9121 22.9241 28.0709 23.0436C28.2334 23.1658 28.4894 23.311 28.8827 23.4853C29.6763 23.8368 30.8282 24.2219 32.4587 24.7655C32.4958 24.7778 32.5326 24.79 32.5692 24.8022C33.1037 24.9796 33.5755 25.1362 33.9687 25.4311C34.196 25.6016 34.3979 25.8036 34.5684 26.0309C34.8633 26.424 35.0199 26.8958 35.1974 27.4304C35.2095 27.4669 35.2217 27.5037 35.2341 27.5408C35.7776 29.1714 36.1627 30.3232 36.5143 31.1168C36.6885 31.5102 36.8337 31.7662 36.9559 31.9286C37.0754 32.0875 37.1353 32.1066 37.1268 32.1032C37.3661 32.1994 37.6333 32.1994 37.8725 32.1032C37.864 32.1066 37.9239 32.0875 38.0434 31.9286C38.1656 31.7662 38.3108 31.5102 38.4851 31.1168C38.8366 30.3232 39.2217 29.1714 39.7653 27.5408L42.7861 18.4784C43.0728 17.6182 43.2491 17.081 43.3165 16.7021C43.3179 16.6942 43.3192 16.6865 43.3205 16.679C43.313 16.6803 43.3053 16.6816 43.2975 16.683ZM43.5564 16.6599C43.5562 16.6601 43.5529 16.6598 43.5472 16.6586C43.5538 16.6591 43.5566 16.6597 43.5564 16.6599ZM43.341 16.4523C43.3397 16.4466 43.3394 16.4433 43.3396 16.4431C43.3398 16.4429 43.3404 16.4458 43.341 16.4523ZM42.9472 14.7139C43.4982 14.6159 44.2527 14.5867 44.8327 15.1668C45.4128 15.7468 45.3836 16.5014 45.2856 17.0524C45.1893 17.5938 44.9628 18.2729 44.7073 19.0392L44.6834 19.1108L41.6626 28.1732L41.6441 28.2289C41.1233 29.7914 40.7087 31.0351 40.3137 31.9269C39.9421 32.7657 39.4586 33.6213 38.6183 33.959C37.9004 34.2474 37.0989 34.2474 36.381 33.959C35.5408 33.6213 35.0572 32.7657 34.6857 31.9269C34.2906 31.0351 33.8761 29.7914 33.3553 28.2289L33.3367 28.1732C33.1006 27.4649 33.043 27.3303 32.9685 27.231C32.9117 27.1552 32.8443 27.0879 32.7686 27.031C32.6692 26.9565 32.5346 26.899 31.8263 26.6628L31.7706 26.6443C30.2081 26.1235 28.9644 25.7089 28.0727 25.3139C27.2339 24.9423 26.3782 24.4588 26.0406 23.6185C25.7521 22.9006 25.7521 22.0991 26.0406 21.3812C26.3782 20.541 27.2339 20.0574 28.0727 19.6859C28.9644 19.2908 30.2081 18.8763 31.7706 18.3554L31.8263 18.3369L40.8887 15.3161L40.9603 15.2922C41.7266 15.0367 42.4057 14.8103 42.9472 14.7139Z" fill="#21466D"/>
</svg>
