<svg width="80" height="45" viewBox="0 0 80 45" fill="none" xmlns="http://www.w3.org/2000/svg">
<rect x="1" y="1" width="78" height="43" rx="21.5" stroke="white" stroke-width="2"/>
<path d="M30.3021 21.8376C32.3481 20.5441 34.6321 19.4646 36.7661 18.3795C40.4374 16.6023 44.1233 14.8559 47.8464 13.2299C48.5708 12.9529 49.8724 12.682 50 13.914C49.9301 15.6579 49.6426 17.3916 49.4454 19.1254C48.945 22.9379 48.3665 26.7375 47.8024 30.5375C47.608 31.8033 46.2264 32.4585 45.3424 31.6485C43.2178 30.0016 41.077 28.3706 38.9796 26.6854C38.2925 25.8842 38.9296 24.7336 39.5432 24.1614C41.2931 22.1823 43.1488 20.5008 44.8072 18.4194C45.2545 17.1797 43.9327 18.2245 43.4968 18.5447C41.1012 20.4392 38.7643 22.4495 36.2387 24.1146C34.9486 24.9296 33.445 24.2331 32.1555 23.7783C30.9993 23.2289 29.305 22.6754 30.302 21.8377L30.3021 21.8376Z" fill="white"/>
</svg>
