<svg width="401" height="100" viewBox="0 0 401 100" fill="none" xmlns="http://www.w3.org/2000/svg">
<path fill-rule="evenodd" clip-rule="evenodd" d="M5.15967 47.2203C5.70168 37.9998 9.08921 29.4573 14.5093 22.5419H8.2762C8.2762 22.6775 8.1407 22.8131 8.1407 22.8131C8.1407 22.9487 8.0052 23.0843 8.0052 23.0843C8.0052 23.2199 7.8697 23.3555 7.8697 23.3555C7.8697 23.4911 7.7342 23.6267 7.7342 23.6267C7.7342 23.7623 7.59869 23.8979 7.59869 23.8979C7.59869 24.0335 7.46319 24.1691 7.46319 24.1691C7.46319 24.3047 7.32769 24.4403 7.32769 24.4403C7.32769 24.5759 7.19219 24.7115 7.19219 24.7115C7.19219 24.8471 7.05669 24.9827 7.05669 24.9827C7.05669 25.1183 6.92119 25.2539 6.92119 25.2539C6.92119 25.3895 6.78569 25.525 6.78569 25.525C6.78569 25.6606 6.65019 25.7962 6.65019 25.7962C6.65019 25.9318 6.51468 26.0674 6.51468 26.0674C6.51468 26.203 6.37918 26.3386 6.37918 26.3386C6.37918 26.4742 6.24368 26.6098 6.24368 26.6098C6.24368 26.7454 6.10818 26.881 6.10818 26.881C6.10818 27.0166 5.97268 27.1522 5.97268 27.1522C5.97268 27.2878 5.83718 27.4234 5.83718 27.4234C5.83718 27.559 5.70168 27.6946 5.70168 27.6946C5.70168 27.8302 5.56617 27.9658 5.56617 27.9658C5.56617 28.1014 5.43067 28.237 5.43067 28.237C5.43067 28.3725 5.29517 28.5081 5.29517 28.5081C5.29517 28.6437 5.15967 28.7793 5.15967 28.7793C5.15967 28.9149 5.02417 29.0505 5.02417 29.1861C5.02417 29.3217 4.88867 29.4573 4.88867 29.5929C4.88867 29.7285 4.75317 29.8641 4.75317 29.9997C4.75317 30.1353 4.61767 30.2709 4.61767 30.4065C4.61767 30.5421 4.48216 30.6777 4.48216 30.8133C4.48216 30.9489 4.34666 31.0845 4.34666 31.22C4.34666 31.3556 4.21116 31.4912 4.21116 31.6268C4.21116 31.7624 4.07566 31.898 4.07566 32.0336C4.07566 32.1692 3.94016 32.3048 3.94016 32.4404C3.94016 32.576 3.80466 32.7116 3.80466 32.8472C3.80466 32.9828 3.66916 33.1184 3.66916 33.254C3.66916 33.3896 3.53365 33.5252 3.53365 33.6608C3.53365 33.7964 3.39815 33.932 3.39815 34.0676C3.39815 34.2031 3.26265 34.3387 3.26265 34.4743C3.26265 34.6099 3.12715 34.7455 3.12715 34.8811C3.12715 35.0167 2.99165 35.1523 2.99165 35.2879C2.99165 35.4235 2.85615 35.5591 2.85615 35.6947C2.85615 35.8303 2.72065 35.9659 2.72065 36.1015C2.72065 36.2371 2.58515 36.3727 2.58515 36.5083C2.58515 36.6439 2.58515 36.7795 2.44964 36.9151C2.44964 37.0506 2.44964 37.1862 2.31414 37.3218C2.31414 37.4574 2.31414 37.593 2.17864 37.7286C2.17864 37.8642 2.17864 37.9998 2.04314 38.1354C2.04314 38.271 2.04314 38.4066 1.90764 38.5422C1.90764 38.6778 1.90764 38.8134 1.77214 38.949C1.77214 39.0846 1.77214 39.2202 1.63664 39.3558C1.63664 39.4914 1.63664 39.627 1.50113 39.7626C1.50113 39.8981 1.50113 40.0337 1.36563 40.1693C1.36563 40.3049 1.36563 40.4405 1.23013 40.5761C1.23013 40.7117 1.23013 40.8473 1.09463 40.9829C1.09463 41.1185 1.09463 41.2541 0.959129 41.3897C0.959129 41.5253 0.959129 41.6609 0.959129 41.7965C0.959129 41.9321 0.959129 42.0677 0.959129 42.2033C0.959129 42.3389 0.959129 42.4745 0.959129 42.6101C0.959129 42.7457 0.959129 42.8812 0.959129 43.0168C0.959129 43.1524 0.959129 43.288 0.959129 43.4236C0.959129 43.5592 0.959129 43.6948 0.959129 43.8304C0.959129 43.966 0.959129 44.1016 0.959129 44.2372C0.959129 44.3728 0.959129 44.5084 0.959129 44.644C0.959129 44.7796 0.959129 44.9152 0.959129 45.0508C0.959129 45.1864 0.959129 45.322 0.959129 45.4576C0.959129 45.8643 0.959129 48.0339 0.959129 50.7458C1.23013 57.9323 2.99165 64.5765 5.97268 70.6783V70.5427V70.4071V70.2715V70.1359V70.0003V69.8647V69.7291V69.5935V69.3223V69.0511V68.7799V68.5088V68.2376V67.9664V67.6952V67.424V67.1528V66.8816V66.6104V66.2036V65.7968V65.3901V64.9833V64.5765V64.1697V63.7629V63.3561V62.9493V62.5426V62.1358V61.729V61.3222V60.9154V60.5086V60.1018V59.6951V59.2883V58.8815V58.4747V58.0679V57.6611V57.2543V56.8476V56.4408V56.034V55.6272V55.2204V54.8136V54.4068V54.0001V53.5933V53.3221V53.0509V52.7797V52.5085V52.2373V51.9661V51.6949V51.4237V51.1526V50.8814V50.6102V50.4746V50.339V50.2034V50.0678V49.9322V49.7966V49.661V49.5254V49.3898V49.2542V49.1186V48.983V48.8474V48.7118V48.5762V48.4407V48.3051V48.1695V48.0339V47.8983V47.7627V47.6271V47.4915V47.3559V47.2203V47.0847V46.9491V46.8135V46.6779V46.5423V46.4067V46.2711V46.1355V45.9999V45.8643V45.7287V45.5931V45.4576V45.322V45.1864V45.0508V44.9152V44.7796L5.15967 47.2203ZM92.1515 34.8811C92.1515 35.0167 92.1515 35.0167 92.287 35.1523C92.287 35.2879 92.287 35.2879 92.4225 35.4235C92.4225 35.5591 92.4225 35.5591 92.558 35.6947C92.558 35.8303 92.558 35.8303 92.6935 35.9659C92.6935 36.1015 92.6935 36.1015 92.829 36.2371C92.829 36.3727 92.829 36.3727 92.9645 36.5083C92.9645 36.6439 92.9645 36.6439 93.1 36.7795C93.1 36.9151 93.1 36.9151 93.2355 37.0506C93.2355 37.1862 93.2355 37.1862 93.2355 37.3218C93.2355 37.4574 93.2355 37.4574 93.2355 37.593C93.2355 37.7286 93.2355 37.7286 93.2355 37.8642C93.2355 37.9998 93.2355 37.9998 93.2355 38.1354C93.2355 38.271 93.2355 38.271 93.2355 38.4066C93.2355 38.5422 93.2355 38.5422 93.2355 38.6778C93.2355 38.8134 93.2355 38.8134 93.2355 38.949C93.2355 39.0846 93.2355 39.0846 93.2355 39.2202C93.2355 39.3558 93.2355 39.3558 93.2355 39.4914C93.2355 39.627 93.2355 39.627 93.2355 39.7626C93.2355 39.8981 93.2355 39.8981 93.2355 40.0337C93.2355 40.1693 93.2355 40.1693 93.2355 40.3049C93.2355 40.4405 93.371 40.5761 93.371 40.7117C93.371 40.8473 93.371 40.8473 93.371 40.9829C93.371 41.1185 93.371 41.1185 93.371 41.2541C93.371 41.3897 93.371 41.3897 93.371 41.5253C93.371 41.6609 93.371 41.6609 93.371 41.7965C93.371 41.9321 93.371 41.9321 93.371 42.0677C93.371 42.2033 93.371 42.2033 93.371 42.3389C93.371 42.4745 93.371 42.4745 93.371 42.6101C93.371 42.7457 93.371 42.7457 93.371 42.8812C93.371 43.0168 93.371 43.0168 93.371 43.1524C93.371 43.288 93.371 43.288 93.371 43.4236C93.371 43.5592 93.371 43.5592 93.371 43.6948C93.371 43.8304 93.371 43.8304 93.371 43.966C93.371 44.1016 93.371 44.1016 93.371 44.2372C93.371 44.3728 93.371 44.3728 93.371 44.5084C93.371 44.644 93.371 44.644 93.371 44.7796C93.371 44.9152 93.371 44.9152 93.371 45.0508C93.371 45.1864 93.371 45.1864 93.371 45.322C93.371 45.4576 93.371 45.4576 93.371 45.5931C93.371 45.7287 93.371 45.7287 93.371 45.8643C93.371 45.9999 93.371 45.9999 93.371 46.1355C93.371 46.2711 93.371 46.2711 93.371 46.4067C93.371 46.5423 93.371 46.5423 93.371 46.6779C93.371 46.8135 93.371 46.8135 93.371 46.9491C93.371 47.0847 93.371 47.0847 93.371 47.2203C93.371 47.3559 93.371 47.3559 93.371 47.4915C93.371 47.6271 93.371 47.6271 93.371 47.7627C93.371 47.8983 93.371 47.8983 93.371 48.0339C93.371 48.1695 93.371 48.1695 93.371 48.3051C93.371 48.4407 93.371 48.4407 93.371 48.5762C93.371 48.7118 93.371 48.7118 93.371 48.8474C93.371 48.983 93.371 48.983 93.371 49.1186C93.371 49.2542 93.371 49.2542 93.371 49.3898C93.371 49.5254 93.371 49.5254 93.371 49.661C93.371 49.7966 93.371 49.7966 93.371 49.9322C93.371 50.0678 93.371 50.0678 93.371 50.2034C93.371 50.339 93.371 50.339 93.371 50.4746C93.371 50.6102 93.371 50.6102 93.371 50.7458C93.371 50.8814 93.371 50.8814 93.371 51.017C93.371 51.1526 93.371 51.1526 93.371 51.2882C93.371 51.4237 93.371 51.4237 93.371 51.5593C93.371 51.6949 93.371 51.6949 93.371 51.8305C93.371 51.9661 93.371 51.9661 93.371 52.1017V73.2546C93.371 73.119 93.5065 72.9834 93.5065 72.9834C93.5065 72.8478 93.642 72.7122 93.642 72.7122C93.642 72.5766 93.7775 72.441 93.7775 72.441C93.7775 72.3054 93.913 72.1698 93.913 72.1698C93.913 72.0342 94.0485 71.8986 94.0485 71.8986C94.0485 71.763 94.184 71.6274 94.184 71.6274C94.184 71.4919 94.3195 71.3563 94.3195 71.3563C94.3195 71.2207 94.455 71.0851 94.455 71.0851C94.455 70.9495 94.5906 70.8139 94.5906 70.8139C94.5906 70.6783 94.7261 70.5427 94.7261 70.5427C94.7261 70.4071 94.8616 70.2715 94.8616 70.2715C94.8616 70.1359 94.9971 70.0003 94.9971 70.0003C94.9971 69.8647 95.1326 69.7291 95.1326 69.7291C95.1326 69.5935 95.2681 69.4579 95.2681 69.4579C95.2681 69.3223 95.4036 69.1867 95.4036 69.1867C95.4036 69.0511 95.5391 68.9155 95.5391 68.9155C95.5391 68.7799 95.6746 68.6443 95.6746 68.6443C95.6746 68.5088 95.8101 68.3732 95.8101 68.3732C95.8101 68.2376 95.9456 68.102 95.9456 68.102C95.9456 67.9664 96.0811 67.8308 96.0811 67.8308C96.0811 67.6952 96.2166 67.5596 96.2166 67.5596C96.2166 67.424 96.3521 67.2884 96.3521 67.2884C96.3521 67.1528 96.4876 67.0172 96.4876 67.0172C96.4876 66.8816 96.4876 66.746 96.6231 66.746C96.6231 66.6104 96.6231 66.4748 96.7586 66.4748C96.7586 66.3392 96.7586 66.2036 96.8941 66.2036C96.8941 66.068 96.8941 65.9324 97.0296 65.9324C97.0296 65.7969 97.0296 65.6613 97.1651 65.6613C97.1651 65.5257 97.1651 65.3901 97.3006 65.3901C97.3006 65.2545 97.3006 65.1189 97.4361 65.1189C97.4361 64.9833 97.4361 64.8477 97.5716 64.8477C97.5716 64.7121 97.5716 64.5765 97.7071 64.5765C97.7071 64.4409 97.7071 64.3053 97.8426 64.1697C97.8426 64.0341 97.8426 63.8985 97.9781 63.7629C97.9781 63.6273 97.9781 63.4917 98.1136 63.3561C98.1136 63.2205 98.1136 63.0849 98.2491 62.9493C98.2491 62.8138 98.2491 62.6782 98.3846 62.5426C98.3846 62.407 98.3846 62.2714 98.5201 62.1358C98.5201 62.0002 98.5201 61.8646 98.5201 61.729C98.5201 61.5934 98.5201 61.4578 98.5201 61.3222C98.5201 61.1866 98.5201 61.051 98.5201 60.9154C98.5201 60.7798 98.5201 60.6442 98.5201 60.5086C98.5201 60.373 98.5201 60.2374 98.5201 60.1018C98.5201 59.9662 98.5201 59.8307 98.5201 59.6951C98.5201 59.5595 98.5201 59.4239 98.5201 59.2883C98.5201 59.1527 98.5201 59.0171 98.5201 58.8815C98.5201 58.7459 98.5201 58.6103 98.5201 58.4747C98.5201 58.3391 98.5201 58.2035 98.5201 58.0679C98.5201 57.9323 98.5201 57.7967 98.5201 57.6611C98.5201 57.5255 98.5201 57.3899 98.5201 57.2543C98.5201 57.1187 98.5201 56.9832 98.5201 56.8476C98.5201 56.712 98.5201 56.5764 98.5201 56.4408C98.5201 56.3052 98.5201 56.1696 98.5201 56.034C98.5201 55.8984 98.5201 55.7628 98.5201 55.6272C98.5201 55.4916 98.5201 55.356 98.5201 55.2204C98.5201 55.0848 98.5201 54.9492 98.5201 54.8136C98.5201 54.678 98.5201 54.5424 98.5201 54.4068C98.5201 54.2713 98.5201 54.1357 98.5201 54.0001C98.5201 53.8645 98.5201 53.7289 98.5201 53.5933C98.5201 53.4577 98.5201 53.3221 98.5201 53.1865C98.5201 53.0509 98.5201 52.9153 98.5201 52.7797C98.5201 52.6441 98.5201 52.5085 98.5201 52.3729C98.5201 52.2373 98.5201 52.1017 98.5201 51.9661C98.5201 51.8305 98.5201 51.6949 98.5201 51.5593V50.6102C98.5201 45.4576 97.7071 40.5761 96.2166 35.8303H90.7965L92.1515 34.8811ZM49.8751 43.288C47.7071 43.288 45.6746 44.2372 44.1841 45.7287C42.9645 47.0847 42.016 48.8474 41.8805 50.8814C41.8805 51.1526 41.8805 51.2882 41.8805 51.5593V71.2207H47.0296V51.5593C47.0296 50.6102 47.3006 49.9322 47.8426 49.2542C48.3846 48.7118 49.0621 48.4407 49.7396 48.4407C50.5526 48.4407 51.2301 48.7118 51.6366 49.2542C52.1786 49.7966 52.4496 50.6102 52.4496 51.5593V84.1022H57.5987V51.5593C57.5987 51.2882 57.5987 51.1526 57.5987 50.8814C57.4632 48.8474 56.6502 47.0847 55.2952 45.7287C53.8046 44.2372 51.9076 43.288 49.6041 43.288H49.8751ZM52.7206 88.1701V100.238C54.4822 100.102 56.1082 99.9669 57.8697 99.6957V88.3057H52.7206V88.1701ZM42.016 75.2885V99.5601C43.6421 99.8313 45.4036 99.9669 47.1651 100.102V75.2885H42.016ZM38.493 38.6778C35.783 41.3897 33.886 45.1864 33.7505 49.3898C33.7505 49.661 33.7505 49.9322 33.7505 50.0678V56.9832H38.8995V50.0678C38.8995 47.0847 40.119 44.2372 42.1515 42.3389C43.5065 40.9829 45.4036 39.8981 47.4361 39.3558V34.0676C44.0486 34.6099 40.932 36.2371 38.6285 38.5422L38.493 38.6778ZM51.3656 39.2202C53.8047 39.4914 56.1082 40.7117 57.7342 42.3389C59.7667 44.3728 60.9862 47.0847 60.9862 50.2034V65.6613H66.1353V50.2034C66.1353 49.9322 66.1353 49.5254 66.1353 49.2542C65.8643 45.1864 64.1028 41.5253 61.3927 38.6778C58.8182 36.1015 55.2952 34.3387 51.3656 33.932V39.0846V39.2202ZM60.9862 69.7291V99.0177C62.7477 98.6109 64.3738 98.2041 66.1353 97.5261V69.7291H60.9862ZM33.7505 61.1866V97.5261C35.3765 98.0685 37.138 98.6109 38.8995 99.0177V61.1866H33.7505ZM32.3954 32.7116C28.0594 37.0506 25.3494 42.8812 25.2139 49.2542C25.2139 49.5254 25.2139 49.9322 25.2139 50.2034V78.6784H30.3629V50.2034C30.3629 44.7796 32.5309 39.8981 36.054 36.3727C39.577 32.8472 44.4551 30.6777 49.8751 30.6777C55.2952 30.6777 60.1732 32.8472 63.6962 36.3727C67.2193 39.8981 69.3873 44.7796 69.3873 50.2034V51.1526H74.5364V50.2034C74.5364 49.9322 74.5364 49.661 74.5364 49.5254C74.4008 43.0168 71.5553 37.0506 67.3548 32.7116C62.8832 28.237 56.6502 25.525 49.8751 25.525C43.1 25.525 36.867 28.237 32.3954 32.7116ZM25.2139 82.7463V93.5939C26.8399 94.5431 28.6014 95.3566 30.3629 96.1702V82.7463H25.2139ZM69.5228 55.2204V96.1702C71.2843 95.3566 73.0458 94.5431 74.6719 93.5939V55.2204H69.5228ZM26.4334 26.6098C20.6068 32.4404 16.9483 40.4405 16.6773 49.2542C16.6773 49.5254 16.6773 49.9322 16.6773 50.2034V58.7459H21.8263V50.2034C21.8263 42.4745 24.9429 35.4235 30.0919 30.2709C35.241 25.1183 42.287 21.9996 50.0106 21.9996C55.1597 21.9996 60.0377 23.3555 64.2382 25.7962V19.9656C59.9022 17.9317 55.1597 16.8469 50.0106 16.8469C40.7965 16.8469 32.5309 20.508 26.4334 26.6098ZM68.1678 28.6437C68.7098 29.1861 69.2518 29.7285 69.7938 30.2709C74.9429 35.4235 78.0594 42.4745 78.0594 50.2034V68.7799H83.2084V50.2034C83.2084 49.9322 83.2084 49.5254 83.2084 49.2542C82.9374 40.4405 79.2789 32.4404 73.4523 26.6098C71.8263 24.9827 70.0648 23.4911 68.1678 22.2708V28.6437ZM16.6773 62.8138V87.4921C18.3033 88.9836 20.0648 90.3396 21.8263 91.56V62.9493H16.6773V62.8138ZM78.0594 72.7122V91.4244C79.8209 90.204 81.5824 88.848 83.2084 87.3565V72.5766H78.0594V72.7122ZM20.3358 20.508C15.0513 25.7962 11.1217 32.576 9.22471 40.1693H14.5093C16.2708 34.0676 19.5228 28.5081 23.8589 24.1691C26.7044 21.3216 29.9564 19.0165 33.615 17.1181V11.4231C28.6014 13.5927 23.9944 16.5758 20.2003 20.3724L20.3358 20.508ZM37.8155 15.491C41.6095 14.135 45.6746 13.4571 50.0106 13.4571C60.1732 13.4571 69.3873 17.5249 76.0269 24.1691C79.9564 28.1014 82.9374 32.8472 84.699 38.1354H90.119C88.0865 31.3556 84.428 25.3895 79.6854 20.508C72.0973 12.9147 61.6637 8.30444 50.1461 8.30444C45.9456 8.30444 41.8805 8.98242 37.951 10.0672V15.491H37.8155ZM85.783 42.2033C86.325 44.7796 86.596 47.4915 86.596 50.2034V84.2378C88.493 82.2039 90.2545 80.0344 91.745 77.7292V50.339C91.745 50.0678 91.745 49.661 91.745 49.3898C91.745 46.9491 91.474 44.644 90.932 42.3389H85.6475L85.783 42.2033ZM8.5472 44.2372C8.2762 45.9999 8.1407 47.8983 8.1407 49.7966V50.4746V77.5936C9.63122 79.8988 11.3927 82.0683 13.2898 84.1022V50.0678C13.2898 48.0339 13.4253 45.9999 13.8318 44.1016H8.68271L8.5472 44.2372ZM18.0323 18.6097C18.4388 18.2029 18.8453 17.7961 19.2518 17.3893C19.3873 17.2537 19.5228 17.1181 19.6583 16.9825C19.7938 16.8469 19.9293 16.7114 20.0648 16.5758C20.2003 16.4402 20.3358 16.3046 20.4713 16.169C20.6068 16.0334 20.7423 15.8978 20.8778 15.8978C21.0133 15.7622 21.1488 15.6266 21.2843 15.6266C21.4198 15.491 21.5553 15.3554 21.6908 15.3554C21.8263 15.2198 21.9618 15.0842 22.0973 15.0842C22.2328 14.9486 22.3683 14.813 22.5038 14.813C22.6393 14.6774 22.7748 14.5418 22.9103 14.5418C23.0458 14.4062 23.1813 14.2706 23.3168 14.2706C23.4524 14.135 23.5879 13.9994 23.7234 13.9994C23.8589 13.8639 23.9944 13.8639 24.1299 13.7283C24.2654 13.5927 24.4009 13.5927 24.5364 13.4571C24.6719 13.3215 24.8074 13.3215 24.9429 13.1859C25.0784 13.0503 25.2139 13.0503 25.3494 12.9147C25.4849 12.7791 25.6204 12.7791 25.7559 12.6435C25.8914 12.5079 26.0269 12.5079 26.1624 12.3723C26.2979 12.2367 26.4334 12.2367 26.5689 12.1011C26.7044 11.9655 26.8399 11.9655 26.9754 11.8299C27.1109 11.6943 27.2464 11.6943 27.3819 11.5587C27.5174 11.4231 27.6529 11.4231 27.7884 11.2875C27.9239 11.1519 28.0594 11.1519 28.1949 11.0163C28.3304 10.8808 28.4659 10.8808 28.6014 10.7452C28.7369 10.6096 28.8724 10.6096 29.0079 10.474C29.1434 10.3384 29.2789 10.3384 29.4144 10.2028C29.5499 10.0672 29.6854 10.0672 29.8209 9.93159C29.9564 9.79599 30.0919 9.79599 30.2274 9.6604C30.3629 9.5248 30.4984 9.5248 30.6339 9.38921C30.7694 9.25361 30.9049 9.25361 31.1759 9.11802C31.3114 8.98242 31.4469 8.98242 31.7179 8.84682C31.8534 8.71123 31.9889 8.71123 32.2599 8.57563C32.3954 8.57563 32.5309 8.44004 32.8019 8.44004C32.9374 8.44004 33.0729 8.30444 33.344 8.30444C33.4795 8.30444 33.615 8.16885 33.886 8.16885C34.0215 8.16885 34.157 8.03325 34.428 8.03325C34.5635 8.03325 34.699 7.89766 34.97 7.89766C35.1055 7.89766 35.241 7.76206 35.512 7.76206C35.6475 7.76206 35.783 7.62647 36.054 7.62647C36.1895 7.62647 36.325 7.49087 36.596 7.49087C36.7315 7.49087 36.867 7.35528 37.138 7.35528C37.2735 7.35528 37.5445 7.21968 37.68 7.21968C37.8155 7.21968 38.0865 7.08409 38.222 7.08409C38.3575 7.08409 38.6285 6.94849 38.764 6.94849C38.8995 6.94849 39.1705 6.8129 39.306 6.8129C39.4415 6.8129 39.7125 6.6773 39.848 6.6773C39.9835 6.6773 40.2545 6.5417 40.39 6.5417C40.5255 6.5417 40.7965 6.40611 40.932 6.40611C41.0675 6.40611 41.3385 6.27051 41.474 6.27051C41.6095 6.27051 41.8805 6.27051 42.016 6.13492C42.1515 6.13492 42.4225 6.13492 42.558 5.99932C42.6935 5.99932 42.9645 5.99932 43.1 5.86373C43.2355 5.86373 43.5065 5.86373 43.6421 5.72813C43.7776 5.72813 44.0486 5.72813 44.1841 5.59254C44.3196 5.59254 44.5906 5.59254 44.7261 5.45694C44.8616 5.45694 45.1326 5.45694 45.2681 5.45694C45.4036 5.45694 45.6746 5.45694 45.8101 5.45694C45.9456 5.45694 46.2166 5.45694 46.3521 5.45694C46.4876 5.45694 46.7586 5.45694 46.8941 5.45694C47.0296 5.45694 47.3006 5.45694 47.4361 5.45694C47.5716 5.45694 47.8426 5.45694 47.9781 5.45694C48.1136 5.45694 48.3846 5.45694 48.5201 5.45694C48.6556 5.45694 48.9266 5.45694 49.0621 5.45694C49.1976 5.45694 49.4686 5.45694 49.6041 5.45694C49.7396 5.45694 50.0106 5.45694 50.1461 5.45694C51.3656 5.45694 52.4496 5.45694 53.6692 5.59254V0.439917C52.4496 0.304321 51.3656 0.304321 50.1461 0.304321C36.867 0.304321 24.9429 5.45694 15.9998 13.8639C14.3738 15.3554 12.8832 17.1181 11.3927 18.7453H18.3033L18.0323 18.6097ZM57.5987 5.86373C66.9483 7.49087 75.3494 11.9655 81.7179 18.3385C85.3765 21.9996 88.3575 26.203 90.5255 30.8133H96.0811C89.4415 14.9486 74.9429 3.28742 57.4632 0.711107V5.86373H57.5987Z" fill="#F32044"/>
<path d="M358.683 16.1689C361.257 17.6605 363.696 19.6944 365.187 21.9995C366.677 19.6944 368.981 17.7961 371.555 16.3045C374.401 14.6774 377.788 13.5926 380.769 13.5926C386.189 13.5926 390.932 15.6266 394.455 19.0164C397.843 22.4063 400.011 27.1522 400.011 32.4404V58.8815H393.642V58.2035C393.642 55.7628 393.642 52.6441 393.642 49.661C393.642 46.9491 393.642 44.1016 393.642 40.9829C393.642 39.3557 393.642 37.8642 393.642 36.7794C393.642 35.4235 393.642 33.9319 393.507 32.576C393.507 29.0505 392.152 25.9318 389.848 23.6267C387.544 21.3216 384.428 19.9656 380.905 19.9656C377.517 19.9656 374.265 21.3216 372.097 23.6267C369.794 25.9318 368.439 29.0505 368.303 32.576V59.017H361.935V32.576C361.935 29.0505 360.58 25.9318 358.276 23.6267C355.973 21.3216 352.856 19.9656 349.333 19.9656C345.946 19.9656 342.694 21.3216 340.525 23.6267C338.222 25.9318 336.867 29.0505 336.731 32.576V59.017H330.363V32.576C330.363 27.2878 332.531 22.5419 335.918 19.152C339.306 15.7622 344.049 13.5926 349.333 13.5926C352.314 13.5926 355.702 14.6774 358.683 16.3045V16.1689ZM124.807 40.0337V13.457H131.176V30.542C131.176 32.3048 131.176 34.0675 131.176 35.2879C131.176 36.915 131.176 38.4066 131.311 40.0337C131.311 43.5592 132.666 46.6779 134.97 48.983C137.273 51.2881 140.39 52.6441 143.778 52.6441C147.301 52.6441 150.417 51.2881 152.721 48.983C155.024 46.6779 156.379 43.5592 156.379 40.0337V13.457H162.748L162.883 40.0337C162.883 45.3219 160.715 50.0678 157.328 53.4576C153.94 56.8475 149.062 59.017 143.913 59.017C138.764 59.017 134.021 56.8475 130.498 53.4576C127.111 50.0678 124.943 45.3219 124.943 40.0337H124.807ZM209.089 32.3048V59.017H202.721V32.576C202.721 29.0505 201.366 25.9318 199.062 23.6267C196.759 21.3216 193.642 19.9656 190.119 19.9656C186.46 19.9656 183.208 21.186 180.905 23.4911C178.737 25.6606 177.382 28.6437 177.246 32.576L177.382 59.1526H171.013V32.576C171.013 26.6098 173.046 22.1351 176.027 19.0164C179.55 15.3554 184.699 13.5926 189.577 13.5926H189.713C194.862 13.5926 199.875 15.3554 203.534 19.0164C206.65 22.1351 208.683 26.6098 208.683 32.576L209.089 32.3048ZM217.49 58.3391V13.457H223.859V59.017H217.49V58.3391ZM238.899 20.1012C242.965 16.0333 248.656 13.457 254.889 13.457C259.36 13.457 263.696 14.813 267.219 17.1181C270.878 19.4232 273.859 22.8131 275.62 26.881L275.891 27.5589L270.065 29.9997L269.794 29.4573C268.439 26.6098 266.406 24.3047 263.696 22.5419C261.122 20.9148 258.141 19.9656 254.889 19.9656C250.417 19.9656 246.352 21.7283 243.371 24.7114C240.39 27.6945 238.629 31.7624 238.629 36.3726C238.629 40.9829 240.39 45.0507 243.371 48.0338C246.352 51.0169 250.417 52.7797 254.889 52.7797C258.141 52.7797 261.122 51.8305 263.696 50.2034C266.271 48.5762 268.439 46.1355 269.794 43.288L270.065 42.7456L275.891 45.3219L275.62 45.9999C273.723 49.9322 270.878 53.322 267.219 55.6272C263.696 57.9323 259.496 59.1526 255.024 59.1526C248.791 59.1526 243.1 56.5763 239.035 52.5085C234.97 48.4406 232.395 42.7456 232.395 36.3726C232.395 30.1353 234.97 24.4403 239.035 20.2368L238.899 20.1012ZM284.021 40.0337V13.457H290.39V30.542C290.39 32.3048 290.39 34.0675 290.39 35.2879C290.39 36.915 290.39 38.4066 290.526 40.0337C290.526 43.5592 291.881 46.6779 294.184 48.983C296.488 51.2881 299.604 52.6441 302.992 52.6441C306.515 52.6441 309.631 51.2881 311.935 48.983C314.238 46.6779 315.593 43.5592 315.593 40.0337V13.457H321.962L322.097 40.0337C322.097 45.3219 319.929 50.0678 316.542 53.4576C313.154 56.8475 308.276 59.017 303.127 59.017C297.978 59.017 293.236 56.8475 289.712 53.4576C286.325 50.0678 284.157 45.3219 284.157 40.0337H284.021Z" fill="#F32044"/>
<path d="M183.479 87.3565H181.311V84.2378C180.363 85.4581 179.414 86.4073 178.195 86.9497C177.246 87.4921 176.027 87.6277 174.807 87.6277C172.233 87.6277 170.2 86.8141 168.439 85.187C166.677 83.5598 165.864 81.3903 165.864 78.814C165.864 76.6444 166.542 74.6105 168.032 72.9834C169.658 71.085 171.962 70.1359 174.672 70.1359C176.298 70.1359 177.517 70.4071 178.601 70.9494C179.685 71.4918 180.498 72.3054 181.176 73.3902V70.5427H183.344V87.2209L183.479 87.3565ZM181.311 79.0852C181.311 77.1868 180.634 75.5597 179.414 74.3393C178.195 72.9834 176.569 72.3054 174.672 72.3054C172.91 72.3054 171.284 72.9834 170.065 74.2037C168.71 75.5597 168.168 77.0512 168.168 79.0852C168.168 80.9835 168.845 82.475 170.065 83.831C171.42 85.0513 172.91 85.7293 174.807 85.7293C176.569 85.7293 178.195 85.0513 179.414 83.831C180.634 82.6106 181.311 80.9835 181.311 79.2208V79.0852ZM211.664 75.6953H209.089C208.547 74.6105 207.734 73.7969 206.786 73.119C205.837 72.5766 204.753 72.1698 203.534 72.1698C201.637 72.1698 200.011 72.8478 198.791 74.0681C197.572 75.2885 196.894 76.9156 196.894 78.814C196.894 80.7123 197.572 82.3394 198.791 83.5598C200.146 84.9158 201.637 85.4581 203.534 85.4581C204.753 85.4581 205.702 85.1869 206.786 84.6446C207.734 84.1022 208.547 83.2886 209.225 82.2038H211.664C210.986 83.6954 210.038 84.9158 208.954 85.7293C207.463 86.8141 205.702 87.4921 203.534 87.4921C200.824 87.4921 198.656 86.5429 197.03 84.7802C195.539 83.153 194.726 81.1191 194.726 78.814C194.726 76.6444 195.539 74.6105 197.03 72.9834C198.791 71.085 200.959 70.1359 203.669 70.1359C205.566 70.1359 207.192 70.6783 208.683 71.6274C210.173 72.5766 211.122 73.9325 211.799 75.5597L211.664 75.6953ZM239.848 87.3565H237.68V84.2378C236.732 85.4581 235.783 86.4073 234.563 86.9497C233.615 87.4921 232.395 87.6277 231.176 87.6277C228.601 87.6277 226.569 86.8141 224.807 85.187C223.046 83.5598 222.233 81.3903 222.233 78.814C222.233 76.6444 222.91 74.6105 224.401 72.9834C226.027 71.085 228.33 70.1359 231.04 70.1359C232.666 70.1359 233.886 70.4071 234.97 70.9494C236.054 71.4918 236.867 72.3054 237.545 73.3902V70.5427H239.713V87.2209L239.848 87.3565ZM237.68 79.0852C237.68 77.1868 237.002 75.5597 235.783 74.3393C234.563 72.9834 232.937 72.3054 231.04 72.3054C229.279 72.3054 227.653 72.9834 226.433 74.2037C225.078 75.5597 224.536 77.0512 224.536 79.0852C224.536 80.9835 225.214 82.475 226.433 83.831C227.788 85.0513 229.279 85.7293 231.176 85.7293C232.937 85.7293 234.563 85.0513 235.783 83.831C237.002 82.6106 237.68 80.9835 237.68 79.2208V79.0852ZM268.574 87.3565H266.406V84.3734C265.593 85.4581 264.645 86.2717 263.561 86.9497C262.477 87.4921 261.122 87.8989 259.902 87.8989C257.463 87.8989 255.295 87.0853 253.534 85.3225C251.772 83.6954 250.959 81.5259 250.959 78.9496C250.959 76.78 251.637 74.8817 253.127 73.2546C254.753 71.3562 257.057 70.4071 259.767 70.4071C261.257 70.4071 262.612 70.6783 263.561 71.2206C264.645 71.763 265.458 72.5766 266.135 73.6613V64.8477H268.439V87.3565H268.574ZM266.406 79.0852C266.406 77.1868 265.729 75.5597 264.509 74.2037C263.29 72.8478 261.664 72.3054 259.767 72.3054C257.87 72.3054 256.379 72.9834 255.16 74.2037C253.94 75.5597 253.263 77.0512 253.263 79.0852C253.263 80.9835 253.94 82.6106 255.16 83.831C256.515 85.0513 258.005 85.7293 259.902 85.7293C261.664 85.7293 263.29 85.0513 264.509 83.831C265.729 82.6106 266.406 80.9835 266.406 79.0852ZM296.894 79.7631H281.989C281.989 81.3903 282.666 82.7462 283.886 83.9666C285.105 85.0514 286.596 85.7293 288.358 85.7293C289.577 85.7293 290.797 85.3225 291.881 84.6446C292.965 83.9666 293.642 83.0174 294.184 81.9327H296.488C295.81 83.6954 294.726 85.1869 293.371 86.1361C291.881 87.2209 290.255 87.6277 288.358 87.6277C285.919 87.6277 283.886 86.8141 282.124 85.187C280.498 83.5598 279.685 81.5259 279.685 78.9496C279.685 76.6444 280.363 74.7461 281.853 72.9834C283.479 71.085 285.647 70.1359 288.358 70.1359C291.203 70.1359 293.507 71.2206 294.997 73.2546C296.217 75.0173 296.894 77.1868 296.894 79.6275V79.7631ZM294.455 77.7292C294.184 76.1021 293.371 74.7461 292.287 73.7969C291.203 72.8478 289.848 72.3054 288.358 72.3054C286.732 72.3054 285.376 72.8478 284.157 73.7969C282.937 74.7461 282.26 76.1021 281.989 77.7292H294.455ZM332.802 87.2209H330.498V77.7292C330.498 75.6953 329.956 74.2037 328.872 73.2546C328.059 72.5766 327.111 72.1698 325.891 72.1698C325.214 72.1698 324.536 72.3054 323.994 72.5766C323.452 72.8478 322.91 73.2546 322.504 73.6613C322.097 74.2037 321.691 74.7461 321.691 75.4241C321.555 76.1021 321.555 76.78 321.555 77.5936V87.0853H319.252V77.5936C319.252 75.9665 318.845 74.6105 318.168 73.6613C317.355 72.5766 316.271 72.1698 314.78 72.1698C313.29 72.1698 312.206 72.7122 311.393 73.6613C310.58 74.6105 310.309 75.9665 310.309 77.5936V87.0853H308.005V70.4071H310.173V72.5766C310.715 71.763 311.393 71.085 312.206 70.6783C313.019 70.2715 313.832 70.0003 314.916 70.0003C316.406 70.0003 317.761 70.4071 318.845 71.2206C319.658 71.763 320.2 72.441 320.607 73.2546C321.149 72.3054 321.962 71.4918 323.046 70.8138C323.994 70.2715 325.078 70.0003 326.298 70.0003C327.924 70.0003 329.414 70.5427 330.634 71.4918C332.26 72.8478 333.073 74.8817 333.073 77.5936V87.0853L332.802 87.2209ZM358.683 70.5427L349.062 93.0515H346.623L349.333 86.4073L342.829 70.5427H345.539L350.824 83.5598L356.244 70.5427H358.683Z" fill="#F32044"/>
</svg>
